<?xml version="1.0" encoding="UTF-8"?>
<svg xmlns="http://www.w3.org/2000/svg" version="1.1" width="300" height="300" viewBox="0 0 300 300"><rect x="0" y="0" width="300" height="300" fill="#ffffff"/><g transform="scale(8.108)"><g transform="translate(0,0)"><path fill-rule="evenodd" d="M9 0L9 1L8 1L8 2L9 2L9 3L8 3L8 4L10 4L10 7L11 7L11 4L12 4L12 5L13 5L13 6L12 6L12 9L16 9L16 10L15 10L15 11L14 11L14 12L13 12L13 13L12 13L12 11L13 11L13 10L11 10L11 11L10 11L10 12L11 12L11 13L10 13L10 14L9 14L9 13L8 13L8 12L9 12L9 11L8 11L8 12L6 12L6 13L8 13L8 15L10 15L10 14L11 14L11 13L12 13L12 14L13 14L13 15L12 15L12 17L13 17L13 18L11 18L11 17L9 17L9 16L8 16L8 19L9 19L9 23L8 23L8 20L6 20L6 19L7 19L7 18L6 18L6 17L7 17L7 16L5 16L5 12L4 12L4 15L3 15L3 14L0 14L0 15L1 15L1 17L0 17L0 19L3 19L3 21L4 21L4 23L2 23L2 22L1 22L1 21L2 21L2 20L1 20L1 21L0 21L0 22L1 22L1 23L2 23L2 24L3 24L3 25L0 25L0 29L1 29L1 26L3 26L3 27L2 27L2 28L3 28L3 29L4 29L4 28L5 28L5 26L3 26L3 25L5 25L5 24L6 24L6 25L7 25L7 26L6 26L6 27L7 27L7 28L6 28L6 29L7 29L7 28L8 28L8 31L9 31L9 32L8 32L8 37L9 37L9 36L10 36L10 37L12 37L12 35L13 35L13 34L11 34L11 31L10 31L10 30L11 30L11 29L12 29L12 30L13 30L13 31L12 31L12 33L13 33L13 32L14 32L14 33L16 33L16 34L15 34L15 35L14 35L14 36L15 36L15 37L18 37L18 36L20 36L20 35L18 35L18 36L16 36L16 34L17 34L17 33L18 33L18 32L20 32L20 33L19 33L19 34L21 34L21 36L22 36L22 37L23 37L23 36L22 36L22 35L23 35L23 34L24 34L24 35L26 35L26 36L25 36L25 37L26 37L26 36L27 36L27 37L28 37L28 36L29 36L29 35L30 35L30 36L31 36L31 37L32 37L32 36L31 36L31 35L30 35L30 34L34 34L34 35L33 35L33 36L34 36L34 37L37 37L37 33L36 33L36 32L37 32L37 29L36 29L36 30L35 30L35 32L34 32L34 30L33 30L33 28L34 28L34 29L35 29L35 28L37 28L37 22L36 22L36 24L34 24L34 21L35 21L35 20L34 20L34 19L36 19L36 21L37 21L37 16L36 16L36 17L35 17L35 16L34 16L34 13L36 13L36 14L35 14L35 15L37 15L37 9L36 9L36 8L35 8L35 9L36 9L36 10L34 10L34 11L32 11L32 12L31 12L31 10L30 10L30 8L29 8L29 11L30 11L30 13L29 13L29 12L27 12L27 11L28 11L28 10L27 10L27 11L26 11L26 12L24 12L24 13L23 13L23 12L22 12L22 11L21 11L21 9L19 9L19 10L17 10L17 9L18 9L18 8L17 8L17 4L18 4L18 7L19 7L19 8L22 8L22 9L23 9L23 10L24 10L24 11L25 11L25 10L24 10L24 9L28 9L28 7L29 7L29 6L28 6L28 5L29 5L29 3L27 3L27 2L29 2L29 0L28 0L28 1L27 1L27 0L26 0L26 3L24 3L24 2L25 2L25 1L24 1L24 0L23 0L23 1L22 1L22 2L21 2L21 0L16 0L16 1L15 1L15 2L19 2L19 1L20 1L20 2L21 2L21 3L22 3L22 4L20 4L20 3L19 3L19 4L18 4L18 3L17 3L17 4L16 4L16 3L15 3L15 4L16 4L16 5L14 5L14 3L13 3L13 4L12 4L12 2L14 2L14 1L11 1L11 2L10 2L10 0ZM23 1L23 2L22 2L22 3L23 3L23 4L22 4L22 5L19 5L19 7L20 7L20 6L21 6L21 7L22 7L22 8L23 8L23 7L24 7L24 5L26 5L26 6L25 6L25 8L27 8L27 7L28 7L28 6L27 6L27 5L26 5L26 4L24 4L24 3L23 3L23 2L24 2L24 1ZM10 3L10 4L11 4L11 3ZM23 4L23 5L22 5L22 7L23 7L23 5L24 5L24 4ZM8 5L8 7L9 7L9 5ZM13 6L13 8L15 8L15 7L16 7L16 6L15 6L15 7L14 7L14 6ZM26 6L26 7L27 7L27 6ZM0 8L0 9L3 9L3 10L0 10L0 11L2 11L2 12L1 12L1 13L3 13L3 11L4 11L4 9L5 9L5 8ZM6 8L6 9L7 9L7 10L5 10L5 11L7 11L7 10L9 10L9 9L11 9L11 8ZM31 8L31 9L32 9L32 8ZM33 8L33 9L34 9L34 8ZM19 10L19 11L17 11L17 12L16 12L16 11L15 11L15 13L13 13L13 14L14 14L14 15L13 15L13 16L14 16L14 18L16 18L16 16L19 16L19 17L18 17L18 18L19 18L19 21L22 21L22 22L19 22L19 23L22 23L22 24L21 24L21 25L22 25L22 24L23 24L23 25L25 25L25 26L23 26L23 27L24 27L24 28L23 28L23 29L22 29L22 28L21 28L21 29L20 29L20 30L19 30L19 28L18 28L18 26L17 26L17 24L18 24L18 25L20 25L20 24L18 24L18 21L17 21L17 20L18 20L18 19L17 19L17 20L16 20L16 19L12 19L12 21L11 21L11 22L10 22L10 23L11 23L11 24L9 24L9 25L10 25L10 26L13 26L13 27L12 27L12 29L14 29L14 30L17 30L17 31L14 31L14 32L18 32L18 31L20 31L20 32L21 32L21 34L22 34L22 33L25 33L25 34L26 34L26 35L27 35L27 36L28 36L28 34L26 34L26 33L27 33L27 32L28 32L28 31L27 31L27 30L25 30L25 31L24 31L24 30L23 30L23 29L25 29L25 28L26 28L26 29L28 29L28 27L29 27L29 28L33 28L33 27L34 27L34 28L35 28L35 27L34 27L34 26L36 26L36 25L34 25L34 24L33 24L33 21L30 21L30 19L29 19L29 20L27 20L27 18L28 18L28 17L30 17L30 18L33 18L33 17L34 17L34 16L33 16L33 15L30 15L30 16L28 16L28 15L26 15L26 13L24 13L24 14L23 14L23 13L22 13L22 12L21 12L21 11L20 11L20 10ZM34 11L34 12L35 12L35 11ZM17 12L17 13L16 13L16 14L15 14L15 15L14 15L14 16L16 16L16 15L17 15L17 14L18 14L18 15L19 15L19 16L20 16L20 17L19 17L19 18L20 18L20 20L22 20L22 21L23 21L23 22L22 22L22 23L23 23L23 24L25 24L25 25L26 25L26 24L25 24L25 23L26 23L26 22L27 22L27 23L28 23L28 24L29 24L29 25L28 25L28 26L27 26L27 27L28 27L28 26L29 26L29 25L33 25L33 26L30 26L30 27L33 27L33 26L34 26L34 25L33 25L33 24L32 24L32 23L30 23L30 21L28 21L28 22L27 22L27 21L26 21L26 20L25 20L25 21L23 21L23 19L21 19L21 18L24 18L24 19L25 19L25 18L24 18L24 17L26 17L26 16L25 16L25 15L24 15L24 16L22 16L22 15L23 15L23 14L22 14L22 13L20 13L20 12L19 12L19 13L18 13L18 12ZM27 13L27 14L28 14L28 13ZM30 13L30 14L33 14L33 13ZM6 14L6 15L7 15L7 14ZM19 14L19 15L20 15L20 16L21 16L21 17L22 17L22 16L21 16L21 14ZM2 16L2 17L1 17L1 18L4 18L4 19L5 19L5 17L3 17L3 16ZM30 16L30 17L33 17L33 16ZM10 19L10 20L11 20L11 19ZM32 19L32 20L33 20L33 19ZM5 20L5 23L4 23L4 24L5 24L5 23L6 23L6 24L7 24L7 25L8 25L8 24L7 24L7 23L6 23L6 22L7 22L7 21L6 21L6 20ZM13 20L13 21L12 21L12 22L14 22L14 21L15 21L15 20ZM15 22L15 23L14 23L14 24L13 24L13 23L12 23L12 25L15 25L15 23L16 23L16 24L17 24L17 22ZM23 22L23 23L25 23L25 22ZM29 23L29 24L30 24L30 23ZM7 26L7 27L8 27L8 26ZM14 26L14 27L16 27L16 26ZM19 26L19 27L21 27L21 26ZM10 28L10 29L11 29L11 28ZM16 28L16 29L18 29L18 28ZM29 29L29 32L32 32L32 29ZM30 30L30 31L31 31L31 30ZM21 31L21 32L22 32L22 31ZM23 31L23 32L24 32L24 31ZM26 31L26 32L25 32L25 33L26 33L26 32L27 32L27 31ZM33 32L33 33L34 33L34 34L35 34L35 33L34 33L34 32ZM9 33L9 34L10 34L10 36L11 36L11 34L10 34L10 33ZM34 35L34 36L36 36L36 35ZM0 0L0 7L7 7L7 0ZM1 1L1 6L6 6L6 1ZM2 2L2 5L5 5L5 2ZM30 0L30 7L37 7L37 0ZM31 1L31 6L36 6L36 1ZM32 2L32 5L35 5L35 2ZM0 30L0 37L7 37L7 30ZM1 31L1 36L6 36L6 31ZM2 32L2 35L5 35L5 32Z" fill="#000000"/></g></g></svg>
